# xmcd
#
# Track frame offsets: 
#        150
#        23342
#        43822
#        60112
#        81380
#        96320
#        108002
#        123325
#        143207
#        169112
#
# Disc length: 2425 seconds
#
# Revision: 0
# Processed by: cddbd v1.5.2PL0 Copyright (c) Steve Scherf et al.
# Submitted via: ExactAudioCopy v0.99pb5
#
DISCID=7609770a
DTITLE=Shinyribs - Well After Awhile
DYEAR=2010
DGENRE=Country
TTITLE0=Who Built The Moon
TTITLE1=Devilsong
TTITLE2=Country Cool
TTITLE3=Shores Of Galilee
TTITLE4=[if you need the] 442
TTITLE5=Poor People's Store
TTITLE6=East TX Rust
TTITLE7=Fisherman's Friend
TTITLE8=Morninh's Night
TTITLE9=Change Is Gonna Come
EXTD=
EXTT0=
EXTT1=
EXTT2=
EXTT3=
EXTT4=
EXTT5=
EXTT6=
EXTT7=
EXTT8=
EXTT9=
PLAYORDER=
